<svg fill="none" height="50" viewBox="0 0 50 50" width="50" xmlns="http://www.w3.org/2000/svg"><path d="m25 50c13.8071 0 25-11.1929 25-25s-11.1929-25-25-25-25 11.1929-25 25 11.1929 25 25 25z" fill="#41bc9c"/><path d="m27.369 34.9618v2.7244h-4.0961v-2.7244c-3.4503-.2714-5.9698-1.3893-7.8381-2.9917l3.392-4.3797c1.9323 1.625 4.3771 2.5141 6.9019 2.5101 1.2292 0 2.3404-.2714 2.3404-1.0678 0-1.8697-11.9396.0529-11.9396-7.6387 0-2.9374 2.3988-5.8219 7.0783-6.3022v-2.7773h4.0961v2.8302c2.5779.3215 4.8546 1.175 6.7269 2.5643l-3.4516 4.1667c-1.8724-1.2822-4.2698-1.9769-6.2588-1.9769-1.2876 0-1.639.3745-1.639.8548 0 1.8697 11.8759.2714 11.8759 7.5315.0651 3.7922-2.6254 6.1421-7.1883 6.6767z" fill="#fff"/></svg>