<svg fill="none" height="50" viewBox="0 0 50 50" width="50" xmlns="http://www.w3.org/2000/svg"><path d="m25 50c13.8071 0 25-11.1929 25-25s-11.1929-25-25-25-25 11.1929-25 25 11.1929 25 25 25z" fill="#233468"/><g fill="#fff"><path d="m16.4347 34.9928h-4.6388l1.5725-4.1531v-7.2669l1.5725.5182v6.6903z"/><path d="m25.0001 26.7842-7.1489-3.2075-3.3757-1.5033-.9918-.4504-1.6878-.7028 1.6376-.8019 11.5666-5.111 13.2041 5.9129-6.0566 2.6565z"/><path d="m34.4147 29.8491-9.0999 4.0459-9.1-4.0459c0-1.6417.3637-3.0487.9362-4.1626l8.1638 4.0459 8.1121-4.0459c.6757 1.1696.9878 2.5168.9878 4.1626z"/></g></svg>