<svg fill="none" height="50" viewBox="0 0 50 50" width="50" xmlns="http://www.w3.org/2000/svg"><path d="m25 50c13.8071 0 25-11.1929 25-25s-11.1929-25-25-25-25 11.1929-25 25 11.1929 25 25 25z" fill="#f7b319"/><g fill="#fff"><path d="m40.9421 13.975c0-.2073-.0824-.406-.2289-.5526-.1466-.1466-.3454-.2289-.5527-.2289-.2072 0-.406.0823-.5526.2289-.1465.1466-.2289.3453-.2289.5526v.2605c0 2.9184-.7299 3.856-1.4069 4.6904-.2502.3076-.5496.5717-.886.7815-.1045.0529-.156.1045-.2605.1045h-3.4896c-.5236-.2431-.9731-.621-1.3026-1.0949-.5739-.886-1.1993-1.8236-1.1993-4.4774v-.2646c-.0014-.1534-.046-.3033-.1288-.4325-.0828-.1291-.2005-.2322-.3393-.2974-.0529 0-.1045-.0516-.1561-.0516h-.4179c-.1818.0305-.3459.1272-.4606.2715s-.172.326-.1608.51v.2605c0 2.9184-.7299 3.856-1.4069 4.6904-.2502.3076-.5496.5717-.886.7815-.1045.0529-.156.1045-.2605.1045h-3.4937c-.5233-.2434-.9728-.6212-1.3025-1.0949-.6241-.8331-1.2496-1.8236-1.2496-4.4299v-.2578c.0018-.1032-.0171-.2056-.0558-.3012-.0386-.0957-.0961-.1826-.169-.2555-.073-.073-.1598-.1305-.2555-.1691-.0956-.0386-.1981-.0576-.3012-.0557h-.1045c-.197.0159-.381.1049-.5158.2495-.1348.1445-.2107.3343-.2128.532v.2605c0 2.9184-.7299 3.8573-1.407 4.6904-.2505.3076-.5498.5721-.8859.7828-.1045.0516-.1561.1031-.2605.1031h-3.2821c-.5236-.2423-.9732-.6198-1.3025-1.0935-.5726-.9389-1.198-1.8764-1.198-4.5344v-.2632c-.0052-.2056-.0892-.4014-.2346-.5469-.1455-.1454-.3413-.2294-.54693-.2346-.10319-.002-.20572.0168-.30145.0554-.09574.0385-.1827.096-.25568.169-.07297.073-.13046.1599-.16902.2557-.03856.0957-.05738.1982-.05535.3014v.2605c0 3.1789.83306 4.5344 1.76383 5.6808.393.4809.8696.8867 1.407 1.1981v14.4904c0 .3177.1262.6225.3509.8471.2246.2247.5294.3509.8471.3509s.6225-.1262.8471-.3509c.2247-.2246.3509-.5294.3509-.8471v-7.7119h.4695v7.7119c0 .1573.031.3131.0912.4585.0602.1453.1484.2774.2597.3886.1112.1113.2433.1995.3886.2597.1454.0602.3012.0912.4585.0912s.3131-.031.4585-.0912c.1453-.0602.2774-.1484.3886-.2597.1113-.1112.1995-.2433.2597-.3886.0603-.1454.0912-.3012.0912-.4585v-14.4877c.5471-.2974 1.0262-.7054 1.407-1.198.4347-.5066.7706-1.0902.9905-1.7204.2516.6149.5842 1.1935.9891 1.7204.393.4808.8696.8866 1.4069 1.198v14.4877c0 .3177.1263.6225.3509.8471.2247.2247.5294.3509.8472.3509.3177 0 .6224-.1262.8471-.3509.2247-.2246.3509-.5294.3509-.8471v-7.7119h.521v7.7119c-.0054.1608.0216.3211.0794.4712.0578.1502.1452.2872.2571.4028.1118.1157.2458.2077.3939.2705.1482.0628.3074.0952.4683.0952s.3202-.0324.4683-.0952.2821-.1548.394-.2705c.1118-.1156.1992-.2526.257-.4028.0578-.1501.0848-.3104.0794-.4712v-14.4877c.5466-.2975 1.0253-.7055 1.4057-1.198.2089-.2605.3649-.521.5739-.8345.1697-.2797.3094-.5767.4165-.8859.0481.1486.1185.2891.209.4165 0 .0529.0515.0529.0515.1045.0516.1044.1045.1574.156.2605.0516.1031.1045.1574.1561.2605l.0529.0529c.1264.1996.2655.3908.4165.5725.3935.4808.87.8871 1.407 1.1994v14.5393c0 .3177.1262.6225.3509.8471.2247.2247.5294.3509.8471.3509.3178 0 .6225-.1262.8472-.3509.2246-.2246.3509-.5294.3509-.8471v-7.7119h.4694v7.7119c0 .3177.1262.6225.3509.8471.2247.2247.5294.3509.8471.3509.3178 0 .6225-.1262.8472-.3509.2247-.2246.3509-.5294.3509-.8471v-14.4877c.5468-.2978 1.0259-.7057 1.407-1.198.9375-1.095 1.7706-2.5019 1.7706-5.6809.041-.0815.0615-.1719.0597-.2632z"/><path d="m17.0804 17.0521c0-2.9184-4.3756-2.9184-4.3756 0s4.3756 2.9184 4.3756 0z"/><path d="m27.1885 17.0521c0-2.9184-4.377-2.9184-4.377 0s4.377 2.9184 4.377 0z"/><path d="m37.2952 17.0521c0-2.9184-4.377-2.9184-4.377 0s4.377 2.9184 4.377 0z"/></g></svg>