<svg fill="none" height="50" viewBox="0 0 50 50" width="50" xmlns="http://www.w3.org/2000/svg" xmlns:xlink="http://www.w3.org/1999/xlink"><clipPath id="a"><path d="m0 0h50v50h-50z"/></clipPath><g clip-path="url(#a)"><path d="m25 50c13.8071 0 25-11.1929 25-25s-11.1929-25-25-25-25 11.1929-25 25 11.1929 25 25 25z" fill="#18b2e1"/><g fill="#fff"><path d="m25.0624 20.0979h-3.6538v-3.0269h3.6538zm0 4.9333h-3.6538v-3.0284h3.6538zm0 4.9007h-3.6538v-3.0284h3.6538zm0 4.9006h-3.6538v-3.0269h3.6538zm-4.8396-14.7346h-1.6281v-3.0269h1.6281zm0 4.9333h-1.6281v-3.0284h1.6281zm0 4.9007h-1.6281v-3.0284h1.6281zm0 4.9006h-1.6281v-3.0269h1.6281zm-2.1546-14.7346h-1.6281v-3.0269h1.6281zm0 4.9333h-1.6281v-3.0284h1.6281zm0 4.9007h-1.6281v-3.0284h1.6281zm0 4.9006h-1.6281v-3.0269h1.6281zm-3.1843-16.0452h-1.5617v-1.6851h1.5617zm0 4.9007h-1.5617v-1.6852h1.5617zm0 4.9332h-1.5617v-1.6865h1.5617zm0 4.9007h-1.5617v-1.6851h1.5617zm1.3418-18.0126v-2.0596h-3.7433v2.0596h-1.5332v.8141h.4681v20.2295h15.1118v-20.2322h.4708v-.8141z"/><path d="m35.3347 34.5828v-1.3106h1.2794v1.3106zm-1.5929-1.3106h1.2808v1.3106h-1.2808zm1.2808-1.6282v1.3107h-1.2808v-1.3107zm1.5915 0v1.3107h-1.2794v-1.3107zm.3745-3.5276v-2.7136h-1.6281v1.061l-2.061-2.0908-5.7446 5.8342h1.3731v6.3375h1.468v-4.7962h2.3065v4.8071h4.9333v-6.343h1.4043z"/></g></g></svg>